<svg width="15" height="9" viewBox="0 0 15 9" fill="none" xmlns="http://www.w3.org/2000/svg">
<path d="M12.8264 4.79732H1.2917C1.13168 4.79732 1.00195 4.66831 1.00195 4.50667C1.00195 4.34615 1.13071 4.21602 1.2917 4.21602H12.8129L10.0917 1.49477C9.97885 1.38193 9.97859 1.19923 10.0929 1.08493C10.2064 0.971427 10.39 0.971051 10.5027 1.08373L13.6564 4.23743C13.7108 4.29177 13.739 4.36232 13.7409 4.43362C13.792 4.54141 13.7728 4.67302 13.6842 4.76159L10.5305 7.91529C10.4178 8.02797 10.2342 8.0276 10.1207 7.91409C10.0064 7.79979 10.0067 7.61709 10.1195 7.50425L12.8264 4.79732Z" fill="#231F20" stroke="#231F20" stroke-width="0.5"/>
</svg>
